IKResults
version=1
nRows=7
nColumns=40
inDegrees=yes

Units are S.I. units (second, meters, Newtons, ...)
Angles are in degrees.

endheader
time	pelvis_tilt	pelvis_list	pelvis_rotation	pelvis_tx	pelvis_ty	pelvis_tz	hip_flexion_r	hip_adduction_r	hip_rotation_r	knee_angle_r	knee_angle_r_beta	ankle_angle_r	subtalar_angle_r	mtp_angle_r	hip_flexion_l	hip_adduction_l	hip_rotation_l	knee_angle_l	knee_angle_l_beta	ankle_angle_l	subtalar_angle_l	mtp_angle_l	lumbar_extension	lumbar_bending	lumbar_rotation	arm_flex_r	arm_add_r	arm_rot_r	elbow_flex_r	pro_sup_r	wrist_flex_r	wrist_dev_r	arm_flex_l	arm_add_l	arm_rot_l	elbow_flex_l	pro_sup_l	wrist_flex_l	wrist_dev_l
      0.31000000	     16.09223848	     -1.85873350	      5.75046379	     -0.76092620	      0.95604585	     -1.44114445	    -11.74734367	      5.03369482	    -13.88414531	    -17.80779323	     -0.31080462	      8.22131251	     -6.64543154	     -2.56130648	     -4.40433583	      4.89880847	      1.07530840	    -53.97518221	     -0.94204464	      7.87732020	     18.00369668	      9.17754204	    -24.14377532	      2.94294174	      0.25732213	     -3.52362262	    -14.58409579	      0.30627300	     26.31656187	     89.95437384	      0.00000000	      0.00000000	      2.64021769	      9.31092257	      7.85757558	     39.30137565	     89.95437384	      0.00000000	      0.00000000
      0.32000000	     15.84304972	     -1.64879908	      5.34187931	     -0.74691505	      0.95590965	     -1.44020001	    -12.65684830	      4.86549034	    -13.52753670	    -17.42215639	     -0.30407399	      8.71640961	     -6.55493540	     -2.49703290	     -2.68842448	      4.41327153	      1.55527038	    -52.76703613	     -0.92095852	      8.97067127	     18.23875683	      9.22303212	    -24.00180708	      2.47228491	      0.69448309	     -2.81860447	    -14.83034839	      0.34166598	     28.00160115	     89.95437384	      0.00000000	      0.00000000	      2.01038095	      9.13078855	      7.70525692	     37.12501261	     89.95437384	      0.00000000	      0.00000000
      0.33000000	     15.49622389	     -1.56642136	      5.05898022	     -0.73274000	      0.95516695	     -1.43907727	    -13.30787653	      4.80079705	    -13.74436393	    -17.30148031	     -0.30196780	      9.19690914	     -6.57644081	     -2.46251166	     -0.80843414	      4.30252107	      2.37714866	    -51.44308913	     -0.89785128	      9.45217347	     18.24848572	      9.16459058	    -23.71334430	      2.11375155	      0.88791478	     -1.93829821	    -14.95839897	      0.33752869	     29.47309340	     89.95437384	      0.00000000	      0.00000000	      0.98369942	      9.09636191	      7.63177804	     35.53438138	     89.95437384	      0.00000000	      0.00000000
      0.34000000	     15.78935298	     -1.08132824	      3.72444590	     -0.71874453	      0.95549736	     -1.43751389	    -14.88408386	      4.20529664	    -11.99011204	    -16.77342878	     -0.29275156	      9.68254225	     -6.81995899	     -2.21912599	     -0.26910916	      3.54769704	      3.88803210	    -49.24422126	     -0.85947380	     10.29301923	     18.41082155	     10.26917333	    -24.25624647	      1.13572517	      2.32701732	     -1.74172657	    -15.51380499	      0.26114932	     32.18242379	     89.95437384	      0.00000000	      0.00000000	      0.78464902	      8.68749168	      7.77657177	     32.88140845	     89.95437384	      0.00000000	      0.00000000
      0.35000000	     15.51034457	     -0.94496783	      3.64705736	     -0.70415144	      0.95425475	     -1.43702820	    -15.80607100	      4.16530543	    -12.00600714	    -16.34997829	     -0.28536095	     10.25738957	     -6.83289980	     -2.21356665	      1.34778917	      3.31895976	      4.34021358	    -47.54894189	     -0.82988559	     11.06269634	     18.40483036	     10.40997243	    -23.97403991	      0.86239314	      2.44378948	     -1.24842965	    -15.79017726	      0.21518392	     34.21426806	     89.95437384	      0.00000000	      0.00000000	      0.06924756	      8.54690977	      7.90390176	     30.62717774	     89.95437384	      0.00000000	      0.00000000
      0.36000000	     15.76010449	     -0.59697945	      3.01794994	     -0.68965265	      0.95372983	     -1.43612998	    -17.32706147	      3.79061460	    -11.33465970	    -15.83257270	     -0.27633052	     10.51287603	     -7.25345731	     -1.92729340	      1.98719403	      2.87644136	      5.49059334	    -45.15874306	     -0.78816875	     11.49732085	     18.35364955	     11.86353022	    -24.33544869	      0.23361133	      2.99398282	     -0.79111297	    -16.11270950	      0.01485536	     36.47438720	     89.95437384	      0.00000000	      0.00000000	     -0.56513483	      8.35324917	      8.16469838	     28.45549327	     89.95437384	      0.00000000	      0.00000000
      0.37000000	     15.50091186	     -0.41198034	      2.88369861	     -0.67518754	      0.95196149	     -1.43582075	    -18.13665640	      3.63251010	    -11.28308410	    -15.64998707	     -0.27314380	     11.13254280	     -7.27243645	     -1.92178953	      3.44946231	      2.56400329	      6.03913745	    -43.11836695	     -0.75255747	     11.81892596	     18.23429945	     11.92354765	    -24.09704941	     -0.08110979	      3.13621090	     -0.38504917	    -16.43881494	     -0.06932395	     38.68284353	     89.95437384	      0.00000000	      0.00000000	     -1.18124835	      8.21388971	      8.38432719	     26.07954964	     89.95437384	      0.00000000	      0.00000000
